#!OML:ASF E:\Steps\Project 1\Capture day 1\Session 2\Subject.ASF
:FULLY-SPECIFIED
:DEGREES
415
root 9.31485 16.0918 24.2282 -157.377 -2.32839 177.365
lowerback -23.5203 -2.35266 -4.40984
upperback -0.5627 -2.23168 0.0166781
thorax 12.7611 -1.43177 1.75899
lowerneck 0.660016 -2.09863 -0.74622
upperneck 8.41583 -2.60788 1.63936
head 2.57828 -1.14537 0.600883
rclavicle 1.02747e-014 2.48481e-015
rhumerus -37.3681 -12.4063 -80.6706
rradius 31.8304
rwrist 0.95509
rhand -8.22539 -49.7282
rfingers 7.12502
rthumb 17.692 -78.9434
lclavicle 1.02747e-014 2.48481e-015
lhumerus -33.632 -1.51451 83.8762
lradius 29.5469
lwrist -0.145516
lhand -22.964 -12.2823
lfingers 7.12502
lthumb 3.47787 17.669
rfemur -34.3975 6.32809 18.5038
rtibia 34.2363
rfoot -25.4776 -5.11436
rtoes -25.7233
lfemur -35.7472 -9.90291 -20.2564
ltibia 36.3307
lfoot -14.2817 3.04509
ltoes -43.0641
416
root 9.3169 16.1247 24.1996 -157.111 -2.22796 177.329
lowerback -23.7022 -2.31158 -4.44628
upperback -0.696943 -2.17594 -0.0320322
thorax 12.701 -1.41232 1.74007
lowerneck 0.664362 -2.21234 -0.669317
upperneck 7.74066 -2.80013 1.70241
head 2.3554 -1.25874 0.604172
rclavicle -1.30452e-014 9.74045e-015
rhumerus -37.6457 -12.5209 -80.5981
rradius 31.9068
rwrist 0.773759
rhand -8.55432 -49.8427
rfingers 7.12502
rthumb 17.3754 -79.086
lclavicle -1.30452e-014 9.74045e-015
lhumerus -34.071 -2.07977 84.1487
lradius 29.9004
lwrist -0.298649
lhand -22.7235 -11.8933
lfingers 7.12502
lthumb 3.71013 18.0542
rfemur -34.2792 6.04226 18.5151
rtibia 33.6851
rfoot -25.1661 -4.98423
rtoes -26.3261
lfemur -35.3088 -10.1002 -20.1883
ltibia 35.1649
lfoot -13.9816 3.14726
ltoes -42.5024
417
root 9.31866 16.1489 24.1698 -156.881 -1.9764 177.18
lowerback -23.9594 -2.28703 -4.66505
upperback -0.752687 -2.07992 -0.0835048
thorax 12.7777 -1.386 1.83303
lowerneck 0.51638 -2.22793 -0.685208
upperneck 7.21966 -2.85594 1.81097
head 2.21335 -1.30153 0.639213
rclavicle -4.03781e-015 1.17283e-014
rhumerus -37.7462 -12.6176 -80.5187
rradius 31.8969
rwrist 0.798376
rhand -8.80711 -50.3958
rfingers 7.12502
rthumb 17.1321 -79.6604
lclavicle -4.03781e-015 1.17283e-014
lhumerus -34.4358 -2.57451 84.4924
lradius 30.2977
lwrist -0.181849
lhand -21.9349 -11.2633
lfingers 7.12502
lthumb 4.47164 18.6695
rfemur -34.1915 5.9485 18.3678
rtibia 33.2233
rfoot -24.9553 -4.82989
rtoes -25.9046
lfemur -34.8151 -10.1589 -20.3714
ltibia 34.0616
lfoot -13.8932 3.446
ltoes -42.7544
418
root 9.31971 16.167 24.1415 -156.635 -1.842 177.087
lowerback -24.206 -2.27893 -4.81437
upperback -0.813285 -2.02979 -0.0828183
thorax 12.8451 -1.37788 1.93037
lowerneck 0.288822 -2.24868 -0.809941
upperneck 6.88782 -2.90372 1.81306
head 2.14818 -1.34065 0.658282
rclavicle -4.29872e-015 2.08724e-015
rhumerus -37.9406 -12.3791 -80.4828
rradius 32.1066
rwrist 0.580697
rhand -8.70296 -50.483
rfingers 7.12502
rthumb 17.2324 -79.739
lclavicle -4.29872e-015 2.08724e-015
lhumerus -34.7461 -3.01205 84.8809
lradius 30.5688
lwrist -0.314012
lhand -21.0999 -11.0448
lfingers 7.12502
lthumb 5.27787 18.8695
rfemur -34.104 5.96022 18.2566
rtibia 32.6894
rfoot -24.6852 -4.82587
rtoes -25.0788
lfemur -34.3842 -10.194 -20.4875
ltibia 32.9291
lfoot -13.642 3.62723
ltoes -42.676
419
root 9.32299 16.1835 24.1149 -156.451 -1.77227 177.129
lowerback -24.3419 -2.23678 -4.83017
upperback -0.899662 -1.98094 -0.0580339
thorax 12.8169 -1.36112 1.98209
lowerneck 0.335865 -2.26566 -0.831156
upperneck 6.36217 -2.93842 1.68181
head 1.96652 -1.37569 0.621127
rclavicle -1.33186e-014 -2.98177e-016
rhumerus -38.2398 -12.0856 -80.4533
rradius 32.419
rwrist 0.0124742
rhand -8.48386 -50.7164
rfingers 7.12502
rthumb 17.4432 -79.9538
lclavicle -1.33186e-014 -2.98177e-016
lhumerus -34.9677 -3.34399 85.1599
lradius 30.605
lwrist -0.806128
lhand -21.5654 -11.738
lfingers 7.12502
lthumb 4.82841 18.1869
rfemur -33.923 6.06844 18.306
rtibia 32.1239
rfoot -24.39 -4.9011
rtoes -24.7997
lfemur -33.9269 -10.1114 -20.436
ltibia 31.8551
lfoot -13.3971 3.58352
ltoes -41.7289
420
root 9.32791 16.1974 24.0917 -156.339 -1.71774 177.129
lowerback -24.3684 -2.21903 -4.89819
upperback -0.972659 -1.94902 -0.0609282
thorax 12.7459 -1.35255 2.02909
lowerneck 0.534336 -2.28166 -0.679182
upperneck 5.63433 -2.97506 1.54898
head 1.6916 -1.4098 0.557089
rclavicle -4.9075e-015 -9.74045e-015
rhumerus -38.3512 -12.0075 -80.4203
rradius 32.4659
rwrist -0.494775
rhand -8.04654 -51.1178
rfingers 7.12502
rthumb 17.8641 -80.3173
lclavicle -4.9075e-015 -9.74045e-015
lhumerus -35.1278 -3.68668 85.3499
lradius 30.5651
lwrist -1.41061
lhand -22.6698 -12.2788
lfingers 7.12502
lthumb 3.76193 17.6677
rfemur -33.6564 6.12948 18.3192
rtibia 31.5084
rfoot -24.1784 -4.93148
rtoes -24.1886
lfemur -33.5063 -10.1227 -20.4112
ltibia 31.0665
lfoot -13.4249 3.68838
ltoes -40.957
421
root 9.33261 16.2078 24.0696 -156.271 -1.67349 177.128
lowerback -24.412 -2.22434 -4.94008
upperback -0.970103 -1.94033 -0.0867619
thorax 12.7726 -1.35134 2.02545
lowerneck 0.544832 -2.29235 -0.528564
upperneck 4.96153 -3.00679 1.45357
head 1.47068 -1.4396 0.504055
rclavicle -1.33683e-014 8.84592e-015
rhumerus -38.1943 -12.0876 -80.4379
rradius 32.2503
rwrist -0.77886
rhand -7.83375 -50.8515
rfingers 7.12502
rthumb 18.0688 -80.0323
lclavicle -1.33683e-014 8.84592e-015
lhumerus -35.1936 -4.09315 85.5318
lradius 30.5741
lwrist -1.69681
lhand -22.8294 -12.4075
lfingers 7.12502
lthumb 3.60782 17.5417
rfemur -33.3955 6.21726 18.3407
rtibia 30.9655
rfoot -24.1514 -5.07543
rtoes -23.4329
lfemur -33.0695 -10.1431 -20.389
ltibia 30.3189
lfoot -13.4622 3.7571
ltoes -40.4709
422
root 9.33564 16.2134 24.0452 -156.211 -1.61918 177.15
lowerback -24.509 -2.17972 -4.90224
upperback -0.951504 -1.87958 -0.148997
thorax 12.8395 -1.32078 1.95151
lowerneck 0.414251 -2.3841 -0.467446
upperneck 4.42776 -3.14612 1.44081
head 1.32423 -1.52016 0.488943
rclavicle 7.92654e-015 4.67144e-015
rhumerus -38.1283 -12.1095 -80.5208
rradius 32.2002
rwrist -1.1486
rhand -8.13686 -50.7325
rfingers 7.12502
rthumb 17.7771 -79.9399
lclavicle 7.92654e-015 4.67144e-015
lhumerus -35.2048 -4.53003 85.7222
lradius 30.5558
lwrist -1.71481
lhand -22.2932 -12.6171
lfingers 7.12502
lthumb 4.12565 17.3227
rfemur -33.1198 6.39816 18.3554
rtibia 30.4947
rfoot -24.2854 -5.15166
rtoes -22.1416
lfemur -32.6022 -10.1232 -20.3658
ltibia 29.4887
lfoot -13.3406 3.77396
ltoes -40.6155
423
root 9.33806 16.2125 24.0199 -156.126 -1.55263 177.141
lowerback -24.6707 -2.10153 -4.88585
upperback -0.944824 -1.76687 -0.223854
thorax 12.9245 -1.26876 1.89244
lowerneck 0.259196 -2.54339 -0.492726
upperneck 3.83792 -3.37764 1.57597
head 1.17097 -1.64576 0.533176
rclavicle -7.42958e-015 1.22253e-014
rhumerus -38.1188 -12.1584 -80.5919
rradius 32.2798
rwrist -1.47775
rhand -8.42086 -51.3616
rfingers 7.12502
rthumb 17.5039 -80.5936
lclavicle -7.42958e-015 1.22253e-014
lhumerus -35.2433 -5.07205 85.9579
lradius 30.6386
lwrist -1.6198
lhand -22.5164 -12.5276
lfingers 7.12502
lthumb 3.91012 17.4163
rfemur -32.8426 6.52623 18.3204
rtibia 29.9572
rfoot -24.3293 -5.1542
rtoes -21.6638
lfemur -32.2436 -10.1677 -20.3794
ltibia 28.8379
lfoot -13.3936 3.81775
ltoes -40.2804
424
root 9.34265 16.2078 23.9993 -156 -1.47827 177.048
lowerback -24.7422 -2.07951 -5.00323
upperback -0.994155 -1.70522 -0.279311
thorax 12.9029 -1.24883 1.91699
lowerneck 0.163372 -2.63977 -0.489075
upperneck 3.12624 -3.51983 1.67561
head 0.968664 -1.72738 0.564305
rclavicle 4.42296e-015 9.0447e-015
rhumerus -37.8934 -12.5424 -80.5036
rradius 31.9559
rwrist -1.37281
rhand -8.28462 -51.5866
rfingers 7.12502
rthumb 17.635 -80.8069
lclavicle 4.42296e-015 9.0447e-015
lhumerus -35.3429 -5.54565 86.1817
lradius 30.8066
lwrist -1.4873
lhand -21.9696 -12.546
lfingers 7.12502
lthumb 4.43809 17.3875
rfemur -32.7319 6.71049 18.1724
rtibia 29.58
rfoot -24.3167 -5.41605
rtoes -22.7439
lfemur -32.0097 -10.1865 -20.4866
ltibia 28.3501
lfoot -13.5743 3.91069
ltoes -40.0587
425
root 9.34996 16.2045 23.9847 -155.918 -1.48608 176.918
lowerback -24.6212 -2.10563 -5.16739
upperback -1.05797 -1.70268 -0.34432
thorax 12.7639 -1.25533 1.94146
lowerneck 0.0453189 -2.71649 -0.388705
upperneck 2.49697 -3.63009 1.76807
head 0.794737 -1.78931 0.577228
rclavicle 1.59276e-014 -1.59028e-015
rhumerus -37.6051 -12.9363 -80.464
rradius 31.5309
rwrist -1.2221
rhand -8.06461 -51.2847
rfingers 7.12502
rthumb 17.8467 -80.4858
lclavicle 1.59276e-014 -1.59028e-015
lhumerus -35.4247 -5.85288 86.2951
lradius 30.9408
lwrist -1.49789
lhand -21.4084 -12.906
lfingers 7.12502
lthumb 4.98005 17.0154
rfemur -32.6839 7.09546 17.9344
rtibia 29.4773
rfoot -24.5034 -5.72655
rtoes -22.5999
lfemur -31.7989 -10.2512 -20.5982
ltibia 27.8659
lfoot -13.5901 4.08697
ltoes -40.7102
426
root 9.35444 16.1995 23.9662 -155.937 -1.41747 176.85
lowerback -24.6221 -2.09911 -5.23168
upperback -0.97627 -1.65581 -0.423925
thorax 12.8556 -1.23463 1.90304
lowerneck 0.0930365 -2.87878 -0.405478
upperneck 1.8439 -3.84596 1.57553
head 0.584355 -1.90787 0.524687
rclavicle -9.93923e-017 -2.52457e-014
rhumerus -37.2796 -13.0419 -80.6243
rradius 31.4067
rwrist -1.31635
rhand -8.04761 -51.3355
rfingers 7.12502
rthumb 17.863 -80.5351
lclavicle -9.93923e-017 -2.52457e-014
lhumerus -35.2648 -6.0316 86.349
lradius 30.9595
lwrist -1.49596
lhand -21.4196 -13.1717
lfingers 7.12502
lthumb 4.96917 16.7501
rfemur -32.4813 7.50447 17.7814
rtibia 29.3138
rfoot -24.7377 -5.89208
rtoes -22.0668
lfemur -31.471 -10.2535 -20.6855
ltibia 27.4
lfoot -13.661 4.15296
ltoes -40.9599
427
root 9.35856 16.1951 23.9533 -155.891 -1.41665 176.77
lowerback -24.6645 -2.16409 -5.31703
upperback -0.925803 -1.70566 -0.454171
thorax 12.9436 -1.26234 1.89771
lowerneck 0.755132 -3.43605 -0.52632
upperneck 1.27943 -4.58156 0.901515
head 0.297303 -2.28617 0.353289
rclavicle 1.86609e-014 2.18663e-014
rhumerus -36.9504 -13.0011 -80.7819
rradius 31.3185
rwrist -1.50689
rhand -8.20169 -51.6426
rfingers 7.12502
rthumb 17.7148 -80.8557
lclavicle 1.86609e-014 2.18663e-014
lhumerus -35.0172 -5.98782 86.4069
lradius 30.8102
lwrist -1.51737
lhand -21.6242 -13.0679
lfingers 7.12502
lthumb 4.77163 16.8584
rfemur -32.3298 7.70778 17.6715
rtibia 29.032
rfoot -24.7823 -6.19557
rtoes -22.6187
lfemur -31.3537 -10.2635 -20.7504
ltibia 27.2168
lfoot -14.0065 4.03759
ltoes -40.4074
428
root 9.36361 16.189 23.945 -155.8 -1.54715 176.742
lowerback -24.5649 -2.24862 -5.35345
upperback -1.01342 -1.82802 -0.425619
thorax 12.7977 -1.32106 1.91142
lowerneck 0.914207 -3.47039 -0.839498
upperneck 1.0384 -4.6307 0.939257
head 0.207423 -2.31342 0.42087
rclavicle -4.57205e-015 -1.23246e-014
rhumerus -36.754 -12.912 -80.8554
rradius 31.1284
rwrist -1.63348
rhand -8.46318 -51.0416
rfingers 7.12502
rthumb 17.4631 -80.2772
lclavicle -4.57205e-015 -1.23246e-014
lhumerus -34.9864 -5.76351 86.438
lradius 30.6956
lwrist -1.68878
lhand -21.5759 -12.9882
lfingers 7.12502
lthumb 4.81826 16.937
rfemur -32.2365 7.75479 17.67
rtibia 28.7588
rfoot -24.8309 -6.41302
rtoes -22.9951
lfemur -31.417 -10.3823 -20.6813
ltibia 27.2368
lfoot -14.341 3.91439
ltoes -39.8836
429
root 9.36462 16.1734 23.9315 -155.681 -1.59358 176.772
lowerback -24.5669 -2.26244 -5.29053
upperback -1.09094 -1.87815 -0.402641
thorax 12.7109 -1.34203 1.88488
lowerneck 0.946529 -2.9398 -0.723466
upperneck 0.244009 -3.92386 1.16998
head -0.041629 -1.96329 0.480794
rclavicle 1.58282e-014 1.33186e-014
rhumerus -36.5457 -12.8731 -80.9182
rradius 30.9068
rwrist -1.48114
rhand -8.63295 -48.7592
rfingers 7.12502
rthumb 17.2997 -78.0092
lclavicle 1.58282e-014 1.33186e-014
lhumerus -34.929 -5.40645 86.3976
lradius 30.5595
lwrist -1.92032
lhand -21.2707 -13.2682
lfingers 7.12502
lthumb 5.11295 16.6501
rfemur -32.2637 7.85601 17.7043
rtibia 28.6712
rfoot -25.205 -6.49201
rtoes -22.7105
lfemur -31.4898 -10.4978 -20.5786
ltibia 27.2193
lfoot -14.516 3.90045
ltoes -39.8135
